<svg xmlns="http://www.w3.org/2000/svg" xmlns:xlink="http://www.w3.org/1999/xlink" width="1000" zoomAndPan="magnify" viewBox="0 0 750 749.999995" height="1000" preserveAspectRatio="xMidYMid meet" version="1.0"><defs><clipPath id="a63cac1c95"><path d="M 214.875 214.875 L 535.125 214.875 L 535.125 535.125 L 214.875 535.125 Z M 214.875 214.875 " clip-rule="nonzero"/></clipPath><clipPath id="ab24fd399d"><path d="M 375 214.875 C 286.566406 214.875 214.875 286.566406 214.875 375 C 214.875 463.433594 286.566406 535.125 375 535.125 C 463.433594 535.125 535.125 463.433594 535.125 375 C 535.125 286.566406 463.433594 214.875 375 214.875 " clip-rule="nonzero"/></clipPath></defs><path fill="#273fab" d="M 742.355469 192.421875 C 726.695312 176.753906 698.28125 152.964844 687.84375 145.421875 C 631.015625 104.226562 565.492188 76.378906 498.222656 65.933594 C 395.003906 49.6875 289.46875 74.054688 208.285156 133.238281 C 148.558594 176.175781 110.863281 241.15625 101.585938 314.84375 C 92.308594 390.273438 112.605469 467.441406 158.996094 529.523438 C 112.605469 544.609375 58.097656 547.511719 18.664062 536.488281 C 13.445312 535.328125 8.226562 537.066406 5.328125 541.707031 C 2.425781 546.351562 3.585938 552.152344 7.066406 555.632812 C 24.460938 573.621094 56.9375 600.308594 80.710938 615.394531 C 131.742188 648.46875 189.148438 671.675781 247.714844 681.539062 C 360.214844 700.6875 486.625 669.9375 570.710938 590.445312 C 640.296875 523.722656 669.867188 427.40625 648.992188 332.832031 C 639.714844 291.636719 621.738281 251.601562 596.804688 216.789062 C 642.035156 203.445312 694.222656 201.125 731.335938 211.566406 C 736.554688 212.726562 741.773438 210.988281 744.671875 206.34375 C 747.574219 201.703125 746.414062 195.902344 742.355469 192.421875 Z M 374.710938 292.796875 C 419.359375 292.796875 455.894531 329.351562 455.894531 374.027344 C 455.894531 418.703125 419.359375 455.257812 374.710938 455.257812 C 330.058594 455.257812 293.527344 418.703125 293.527344 374.027344 C 293.527344 329.351562 330.058594 292.796875 374.710938 292.796875 Z M 374.710938 292.796875 " fill-opacity="1" fill-rule="nonzero"/><path fill="#5271ff" d="M 192.421875 7.644531 C 176.753906 23.304688 152.964844 51.71875 145.421875 62.15625 C 104.226562 118.984375 76.378906 184.507812 65.933594 251.777344 C 49.6875 354.996094 74.054688 460.53125 133.238281 541.714844 C 176.175781 601.441406 241.15625 639.136719 314.84375 648.414062 C 390.273438 657.691406 467.441406 637.394531 529.523438 591.003906 C 544.609375 637.394531 547.511719 691.902344 536.488281 731.335938 C 535.328125 736.554688 537.066406 741.773438 541.707031 744.671875 C 546.351562 747.574219 552.152344 746.414062 555.632812 742.933594 C 573.621094 725.539062 600.308594 693.0625 615.394531 669.289062 C 648.46875 618.257812 671.675781 560.851562 681.539062 502.285156 C 700.6875 389.785156 669.9375 263.375 590.445312 179.289062 C 523.722656 109.703125 427.40625 80.132812 332.832031 101.007812 C 291.636719 110.285156 251.601562 128.261719 216.789062 153.195312 C 203.445312 107.964844 201.125 55.777344 211.566406 18.664062 C 212.726562 13.445312 210.988281 8.226562 206.34375 5.328125 C 201.703125 2.425781 195.902344 3.585938 192.421875 7.644531 Z M 292.796875 375.289062 C 292.796875 330.640625 329.351562 294.105469 374.027344 294.105469 C 418.703125 294.105469 455.257812 330.640625 455.257812 375.289062 C 455.257812 419.941406 418.703125 456.472656 374.027344 456.472656 C 329.351562 456.472656 292.796875 419.941406 292.796875 375.289062 Z M 292.796875 375.289062 " fill-opacity="1" fill-rule="nonzero"/><g clip-path="url(#a63cac1c95)"><g clip-path="url(#ab24fd399d)"><path fill="#91a5ff" d="M 214.875 214.875 L 535.125 214.875 L 535.125 535.125 L 214.875 535.125 Z M 214.875 214.875 " fill-opacity="1" fill-rule="nonzero"/></g></g></svg>